<?xml version="1.0" encoding="UTF-8" standalone="no"?>
<svg
   xmlns:dc="http://purl.org/dc/elements/1.1/"
   xmlns:cc="http://creativecommons.org/ns#"
   xmlns:rdf="http://www.w3.org/1999/02/22-rdf-syntax-ns#"
   xmlns:svg="http://www.w3.org/2000/svg"
   xmlns="http://www.w3.org/2000/svg"
   xmlns:xlink="http://www.w3.org/1999/xlink"
   xmlns:sodipodi="http://sodipodi.sourceforge.net/DTD/sodipodi-0.dtd"
   xmlns:inkscape="http://www.inkscape.org/namespaces/inkscape"
   height="296.14801pt"
   version="1.1"
   viewBox="0 0 301.23148 296.14801"
   width="301.23148pt"
   id="svg294"
   sodipodi:docname="ei.svg"
   inkscape:version="1.0.1 (3bc2e813f5, 2020-09-07)">
  <sodipodi:namedview
     pagecolor="#ffffff"
     bordercolor="#666666"
     borderopacity="1"
     objecttolerance="10"
     gridtolerance="10"
     guidetolerance="10"
     inkscape:pageopacity="0"
     inkscape:pageshadow="2"
     inkscape:window-width="1312"
     inkscape:window-height="704"
     id="namedview296"
     showgrid="false"
     inkscape:zoom="1.1935764"
     inkscape:cx="216.02062"
     inkscape:cy="199.99281"
     inkscape:window-x="1254"
     inkscape:window-y="1179"
     inkscape:window-maximized="1"
     inkscape:current-layer="axes_1"
     inkscape:document-rotation="0" />
  <metadata
     id="metadata2">
    <rdf:RDF>
      <cc:Work>
        <dc:type
           rdf:resource="http://purl.org/dc/dcmitype/StillImage" />
        <dc:date>2020-12-14T18:18:50.030838</dc:date>
        <dc:format>image/svg+xml</dc:format>
        <dc:creator>
          <cc:Agent>
            <dc:title>Matplotlib v3.3.2, https://matplotlib.org/</dc:title>
          </cc:Agent>
        </dc:creator>
        <dc:title></dc:title>
      </cc:Work>
    </rdf:RDF>
  </metadata>
  <defs
     id="defs6">
    <style
       type="text/css"
       id="style4">*{stroke-linecap:butt;stroke-linejoin:round;}</style>
  </defs>
  <g
     id="figure_1"
     transform="translate(-68.384529,-41.072)">
    <g
       id="patch_1">
      <path
         d="M 0,345.6 H 460.8 V 0 H 0 Z"
         style="fill:none"
         id="path8" />
    </g>
    <g
       id="axes_1">
      <g
         id="patch_2">
        <path
           d="M 103.104,307.584 H 369.216 V 41.472 H 103.104 Z"
           style="fill:none"
           id="path11" />
      </g>
      <g
         id="patch_3">
        <path
           clip-path="url(#pb160618aeb)"
           d="m 324.864,174.528 -8.8704,2.2176 v -2.17325 H 236.16 v -0.0887 h 79.8336 v -2.17325 z"
           style="fill:#ff004a;stroke:#ff004a;stroke-linejoin:miter"
           id="path14" />
      </g>
      <g
         id="patch_4">
        <path
           clip-path="url(#pb160618aeb)"
           d="m 236.16,85.824 2.2176,8.8704 h -2.17325 v 79.8336 h -0.0887 V 94.6944 h -2.17325 z"
           style="fill:#ff004a;stroke:#ff004a;stroke-linejoin:miter"
           id="path17" />
      </g>
      <g
         id="patch_5">
        <path
           clip-path="url(#pb160618aeb)"
           d="m 147.456,174.528 8.8704,-2.2176 v 2.17325 H 236.16 v 0.0887 h -79.8336 v 2.17325 z"
           style="fill:#ff004a;stroke:#ff004a;stroke-linejoin:miter"
           id="path20" />
      </g>
      <g
         id="patch_6">
        <path
           clip-path="url(#pb160618aeb)"
           d="m 236.16,263.232 -2.2176,-8.8704 h 2.17325 V 174.528 h 0.0887 v 79.8336 h 2.17325 z"
           style="fill:#ff004a;stroke:#ff004a;stroke-linejoin:miter"
           id="path23" />
      </g>
      <g
         id="patch_7">
        <path
           clip-path="url(#pb160618aeb)"
           d="m 322.26592,88.42208 -4.70424,7.8404 -1.53672,-1.536718 -79.8336,79.833598 -0.0627,-0.0627 79.8336,-79.833602 -1.53672,-1.536718 z"
           style="fill:#ff004a;stroke:#ff004a;stroke-linejoin:miter"
           id="path26" />
      </g>
      <g
         id="patch_8">
        <path
           clip-path="url(#pb160618aeb)"
           d="m 150.05408,88.42208 7.8404,4.70424 -1.53672,1.536718 79.8336,79.833602 -0.0627,0.0627 -79.8336,-79.833598 -1.53672,1.536718 z"
           style="fill:#ff004a;stroke:#ff004a;stroke-linejoin:miter"
           id="path29" />
      </g>
      <g
         id="patch_9">
        <path
           clip-path="url(#pb160618aeb)"
           d="m 150.05408,260.63392 4.70424,-7.8404 1.53672,1.53672 79.8336,-79.8336 0.0627,0.0627 -79.8336,79.8336 1.53672,1.53672 z"
           style="fill:#ff004a;stroke:#ff004a;stroke-linejoin:miter"
           id="path32" />
      </g>
      <g
         id="patch_10">
        <path
           clip-path="url(#pb160618aeb)"
           d="m 322.26592,260.63392 -7.8404,-4.70424 1.53672,-1.53672 -79.8336,-79.8336 0.0627,-0.0627 79.8336,79.8336 1.53672,-1.53672 z"
           style="fill:#ff004a;stroke:#ff004a;stroke-linejoin:miter"
           id="path35" />
      </g>
      <g
         id="matplotlib.axis_1">
        <g
           id="xtick_1">
          <g
             id="line2d_1">
            <defs
               id="defs39">
              <path
                 d="M 0,0 V 3.5"
                 id="m82dcebe8bd"
                 style="stroke:#ffffff;stroke-width:0.8" />
            </defs>
            <g
               id="g43">
              <use
                 style="fill:#ffffff;stroke:#ffffff;stroke-width:0.8"
                 x="147.45599"
                 xlink:href="#m82dcebe8bd"
                 y="307.58401"
                 id="use41"
                 width="100%"
                 height="100%" />
            </g>
          </g>
          <g
             id="text_1">
            <!-- $\mathdefault{−1}$ -->
            <g
               style="fill:#ffffff"
               transform="matrix(0.1,0,0,-0.1,140.86825,321.71224)"
               id="g54">
              <defs
                 id="defs48">
                <path
                   d="m 65.90625,23 c 1.6875,0 3.5,0 3.5,2 0,2 -1.8125,2 -3.5,2 H 11.796875 c -1.703125,0 -3.5,0 -3.5,-2 0,-2 1.796875,-2 3.5,-2 z"
                   id="CMSY10-0" />
                <path
                   d="m 6.703125,56 h 1 l 12.890625,5.8125 c 0.109375,0.09375 0.203125,0.09375 0.3125,0.09375 0.59375,0 0.796875,-0.890625 0.796875,-3.296875 V 9.578125 c 0,-5.265625 -1.109375,-6.375 -6.5,-6.375 H 9.59375 V 0 C 25,0 25,0 26.09375,0 c 1.3125,0 3.5,0 6.90625,0 1.203125,0 4.703125,0 8.796875,0 V 3.203125 H 36.59375 c -5.5,0 -6.5,1.109375 -6.5,6.359375 v 59.859375 l -1.390625,0.5 C 22.203125,66.515625 15.09375,63.515625 6,60.3125 Z"
                   id="URW_Palladio_L_Roman-49" />
              </defs>
              <use
                 transform="scale(1.038107)"
                 xlink:href="#CMSY10-0"
                 id="use50"
                 x="0"
                 y="0"
                 width="100%"
                 height="100%" />
              <use
                 transform="matrix(0.996264,0,0,0.996264,81.941696,0)"
                 xlink:href="#URW_Palladio_L_Roman-49"
                 id="use52"
                 x="0"
                 y="0"
                 width="100%"
                 height="100%" />
            </g>
          </g>
        </g>
        <g
           id="xtick_2">
          <g
             id="line2d_2">
            <g
               id="g60">
              <use
                 style="fill:#ffffff;stroke:#ffffff;stroke-width:0.8"
                 x="236.16"
                 xlink:href="#m82dcebe8bd"
                 y="307.58401"
                 id="use58"
                 width="100%"
                 height="100%" />
            </g>
          </g>
          <g
             id="text_2">
            <!-- $\mathdefault{0}$ -->
            <g
               style="fill:#ffffff"
               transform="matrix(0.1,0,0,-0.1,233.66934,321.71224)"
               id="g68">
              <defs
                 id="defs64">
                <path
                   d="M 26.296875,69 C 10.796875,69 2.90625,56.6875 2.90625,32.453125 2.90625,20.71875 5,10.625 8.5,5.71875 12,0.796875 17.59375,-2 23.796875,-2 38.90625,-2 46.5,11.015625 46.5,36.65625 46.5,58.578125 40,69 26.296875,69 Z M 24.5,65.5 c 9.703125,0 13.59375,-9.8125 13.59375,-33.859375 C 38.09375,10.328125 34.296875,1.5 25.09375,1.5 15.40625,1.5 11.296875,11.625 11.296875,36.0625 11.296875,57.1875 15,65.5 24.5,65.5 Z"
                   id="URW_Palladio_L_Roman-48" />
              </defs>
              <use
                 transform="scale(0.996264)"
                 xlink:href="#URW_Palladio_L_Roman-48"
                 id="use66"
                 x="0"
                 y="0"
                 width="100%"
                 height="100%" />
            </g>
          </g>
        </g>
        <g
           id="xtick_3">
          <g
             id="line2d_3">
            <g
               id="g74">
              <use
                 style="fill:#ffffff;stroke:#ffffff;stroke-width:0.8"
                 x="324.86401"
                 xlink:href="#m82dcebe8bd"
                 y="307.58401"
                 id="use72"
                 width="100%"
                 height="100%" />
            </g>
          </g>
          <g
             id="text_3">
            <!-- $\mathdefault{1}$ -->
            <g
               style="fill:#ffffff"
               transform="matrix(0.1,0,0,-0.1,322.37334,321.71224)"
               id="g79">
              <use
                 transform="scale(0.996264)"
                 xlink:href="#URW_Palladio_L_Roman-49"
                 id="use77"
                 x="0"
                 y="0"
                 width="100%"
                 height="100%" />
            </g>
          </g>
        </g>
        <g
           id="text_4">
          <!-- $\delta_x$ -->
          <g
             style="fill:#ffffff"
             transform="matrix(0.1,0,0,-0.1,231.98605,335.64989)"
             id="g91">
            <defs
               id="defs85">
              <path
                 d="M 44,68.1875 C 42.296875,69.5 34.5,71 32,71 24.09375,71 20.59375,66.625 20.59375,60.640625 c 0,-5.375 1.5,-8.578125 4.609375,-14.65625 -0.90625,-0.59375 -1.796875,-1.28125 -2.5,-1.78125 C 17.5,39.703125 12.40625,34.8125 8.40625,29.328125 5.5,25.4375 1.703125,19.546875 1.703125,14.078125 1.703125,1.59375 6.296875,-1 12.796875,-1 17.203125,-1 21.09375,1.09375 26.09375,5.390625 27,6.09375 27.796875,6.875 28.59375,7.78125 c 4.90625,4.984375 11.203125,12.75 11.203125,20.625 0,9.078125 -3.59375,14.171875 -7,18.453125 -3.59375,4.59375 -9.390625,11.859375 -9.390625,16.25 0,2.1875 1.890625,4.6875 5.390625,4.6875 3,0 5.109375,-1.1875 7.40625,-2.296875 C 37,65.109375 40,63.21875 41.296875,60.71875 l 1,0.515625 c 0.5,1.578125 0.90625,4.15625 1.90625,6.0625 z M 32.203125,19.859375 C 29,12.296875 22.5,4.03125 17,4.03125 c -4.90625,0 -7.703125,4.578125 -7.703125,11.15625 0,1.59375 0.703125,4.28125 1.203125,6.078125 2.296875,8.171875 7.796875,14.9375 14.59375,20.4375 0.5,0.390625 1.109375,0.78125 2,1.28125 C 30,38 33.296875,32.21875 33.296875,25.0625 c 0,-1.59375 -0.703125,-4.1875 -1.09375,-5.203125 z"
                 id="Pazo_Math_Italic-100" />
              <path
                 d="m 2.09375,8.84375 c 0,-2 -0.1875,-3.265625 -0.796875,-6.453125 C 1.09375,1.203125 1,0.90625 0.90625,0.203125 2.40625,-0.609375 4,-1 5.203125,-1 8.5,-1 12.40625,1.890625 15.5,6.546875 L 23.09375,18.1875 24.203125,11.328125 C 25.5,2.875 27.796875,-1 31.40625,-1 33.59375,-1 36.796875,0.6875 40,3.578125 l 4.90625,4.375 L 44,9.84375 C 40.40625,6.859375 37.90625,5.375 36.296875,5.375 c -1.5,0 -2.796875,1 -3.796875,2.96875 -0.90625,1.890625 -2,5.5625 -2.5,8.453125 l -1.796875,10.015625 3.5,4.875 c 4.703125,6.453125 7.390625,8.734375 10.5,8.734375 1.59375,0 2.796875,-0.796875 3.296875,-2.28125 l 1.40625,0.390625 1.5,8.46875 c -1.203125,0.703125 -2.109375,1 -3,1 -4,0 -8,-3.59375 -14.203125,-12.734375 L 27.5,29.796875 26.90625,34.5625 C 25.703125,44.40625 23,48 17.09375,48 14.5,48 12.296875,47.203125 11.40625,45.90625 L 5.59375,37.640625 7.296875,36.65625 c 3,3.375 5,4.765625 6.90625,4.765625 3.296875,0 5.5,-4.0625 7.203125,-13.8125 l 1.09375,-6.15625 -4,-6.1875 C 14.203125,8.578125 10.796875,5.375 8,5.375 6.5,5.375 5.40625,5.796875 5.203125,6.296875 L 4.09375,9.140625 Z"
                 id="URW_Palladio_L_Italic-120" />
            </defs>
            <use
               transform="scale(0.996264)"
               xlink:href="#Pazo_Math_Italic-100"
               id="use87"
               x="0"
               y="0"
               width="100%"
               height="100%" />
            <use
               transform="matrix(0.757155,0,0,0.757155,45.620914,-14.943915)"
               xlink:href="#URW_Palladio_L_Italic-120"
               id="use89"
               x="0"
               y="0"
               width="100%"
               height="100%" />
          </g>
        </g>
      </g>
      <g
         id="matplotlib.axis_2">
        <g
           id="ytick_1">
          <g
             id="line2d_4">
            <defs
               id="defs96">
              <path
                 d="M 0,0 H -3.5"
                 id="m372e90969b"
                 style="stroke:#ffffff;stroke-width:0.8" />
            </defs>
            <g
               id="g100">
              <use
                 style="fill:#ffffff;stroke:#ffffff;stroke-width:0.8"
                 x="103.104"
                 xlink:href="#m372e90969b"
                 y="263.23199"
                 id="use98"
                 width="100%"
                 height="100%" />
            </g>
          </g>
          <g
             id="text_5">
            <!-- $\mathdefault{−1}$ -->
            <g
               style="fill:#ffffff"
               transform="matrix(0.1,0,0,-0.1,82.928509,266.79612)"
               id="g107">
              <use
                 transform="scale(1.038107)"
                 xlink:href="#CMSY10-0"
                 id="use103"
                 x="0"
                 y="0"
                 width="100%"
                 height="100%" />
              <use
                 transform="matrix(0.996264,0,0,0.996264,81.941696,0)"
                 xlink:href="#URW_Palladio_L_Roman-49"
                 id="use105"
                 x="0"
                 y="0"
                 width="100%"
                 height="100%" />
            </g>
          </g>
        </g>
        <g
           id="ytick_2">
          <g
             id="line2d_5">
            <g
               id="g113">
              <use
                 style="fill:#ffffff;stroke:#ffffff;stroke-width:0.8"
                 x="103.104"
                 xlink:href="#m372e90969b"
                 y="174.528"
                 id="use111"
                 width="100%"
                 height="100%" />
            </g>
          </g>
          <g
             id="text_6">
            <!-- $\mathdefault{0}$ -->
            <g
               style="fill:#ffffff"
               transform="matrix(0.1,0,0,-0.1,91.12268,178.09212)"
               id="g118">
              <use
                 transform="scale(0.996264)"
                 xlink:href="#URW_Palladio_L_Roman-48"
                 id="use116"
                 x="0"
                 y="0"
                 width="100%"
                 height="100%" />
            </g>
          </g>
        </g>
        <g
           id="ytick_3">
          <g
             id="line2d_6">
            <g
               id="g124">
              <use
                 style="fill:#ffffff;stroke:#ffffff;stroke-width:0.8"
                 x="103.104"
                 xlink:href="#m372e90969b"
                 y="85.823997"
                 id="use122"
                 width="100%"
                 height="100%" />
            </g>
          </g>
          <g
             id="text_7">
            <!-- $\mathdefault{1}$ -->
            <g
               style="fill:#ffffff"
               transform="matrix(0.1,0,0,-0.1,91.12268,89.388119)"
               id="g129">
              <use
                 transform="scale(0.996264)"
                 xlink:href="#URW_Palladio_L_Roman-49"
                 id="use127"
                 x="0"
                 y="0"
                 width="100%"
                 height="100%" />
            </g>
          </g>
        </g>
        <g
           id="text_8">
          <!-- $\delta_y$ -->
          <g
             style="fill:#ffffff"
             transform="matrix(0,-0.1,-0.1,0,75.458003,178.63759)"
             id="g140">
            <defs
               id="defs134">
              <path
                 d="m -0.703125,-17.546875 c -0.09375,-0.6875 -0.09375,-1.28125 -0.09375,-1.78125 C -0.796875,-23.5625 2.90625,-27 7.40625,-27 18,-27 29,-14.734375 34.90625,3.5625 L 49,47.09375 47.90625,48 C 45,46.90625 42.703125,46.296875 40.5,46.109375 L 37,32.984375 C 35.796875,28.3125 32.296875,21.0625 29,16.1875 25.5,11.109375 20.59375,6.75 18.40625,6.75 c -1.203125,0 -2.109375,2.296875 -2,4.765625 L 16.5,12.8125 18,32.09375 c 0.203125,3.09375 0.40625,6.859375 0.40625,9.640625 C 18.40625,46.203125 17.703125,48 16,48 14.703125,48 13.296875,47.296875 8.5,44.015625 l -8.203125,-5.5625 1.109375,-1.78125 5,2.96875 0.390625,0.3125 c 1,0.59375 1.703125,0.890625 2.109375,0.890625 1.390625,0 2.1875,-1.890625 2.1875,-5.15625 0,-0.109375 0,-0.703125 -0.09375,-1.5 L 9.296875,10.03125 9.203125,6.046875 C 9.203125,1.890625 11,-1 13.5,-1 17.203125,-1 25.59375,7.453125 33.09375,18.671875 L 28.203125,1.8125 C 23.09375,-15.625 18.09375,-22.8125 11.09375,-22.8125 c -3.5,0 -6.1875,2.640625 -6.1875,6.0625 0,0.5 0.09375,1.28125 0.1875,2.15625 l -1,0.40625 z"
                 id="URW_Palladio_L_Italic-121" />
            </defs>
            <use
               transform="scale(0.996264)"
               xlink:href="#Pazo_Math_Italic-100"
               id="use136"
               x="0"
               y="0"
               width="100%"
               height="100%" />
            <use
               transform="matrix(0.757155,0,0,0.757155,44.333733,-14.943915)"
               xlink:href="#URW_Palladio_L_Italic-121"
               id="use138"
               x="0"
               y="0"
               width="100%"
               height="100%" />
          </g>
        </g>
      </g>
      <g
         id="line2d_7">
        <path
           clip-path="url(#pb160618aeb)"
           d="M 103.104,130.176 H 369.216"
           style="fill:none;stroke:#ffffff;stroke-width:1.5;stroke-linecap:square"
           id="path144" />
      </g>
      <g
         id="line2d_8">
        <path
           clip-path="url(#pb160618aeb)"
           d="M 103.104,218.88 H 369.216"
           style="fill:none;stroke:#ffffff;stroke-width:1.5;stroke-linecap:square"
           id="path147" />
      </g>
      <g
         id="line2d_9">
        <path
           clip-path="url(#pb160618aeb)"
           d="M 280.512,307.584 V 41.472"
           style="fill:none;stroke:#ffffff;stroke-width:1.5;stroke-linecap:square"
           id="path150" />
      </g>
      <g
         id="line2d_10">
        <path
           clip-path="url(#pb160618aeb)"
           d="M 191.808,307.584 V 41.472"
           style="fill:none;stroke:#ffffff;stroke-width:1.5;stroke-linecap:square"
           id="path153" />
      </g>
      <g
         id="line2d_11">
        <path
           clip-path="url(#pb160618aeb)"
           d="M 236.16,174.528"
           style="fill:none;stroke:#ff004a;stroke-width:1.5;stroke-linecap:square"
           id="path156" />
        <defs
           id="defs159">
          <path
             d="M 0,3 C 0.795609,3 1.55874,2.683901 2.12132,2.12132 2.683901,1.55874 3,0.795609 3,0 3,-0.795609 2.683901,-1.55874 2.12132,-2.12132 1.55874,-2.683901 0.795609,-3 0,-3 -0.795609,-3 -1.55874,-2.683901 -2.12132,-2.12132 -2.683901,-1.55874 -3,-0.795609 -3,0 -3,0.795609 -2.683901,1.55874 -2.12132,2.12132 -1.55874,2.683901 -0.795609,3 0,3 Z"
             id="m68e38025e5"
             style="stroke:#ff004a" />
        </defs>
        <g
           clip-path="url(#pb160618aeb)"
           id="g163">
          <use
             style="fill:#ff004a;stroke:#ff004a"
             x="236.16"
             xlink:href="#m68e38025e5"
             y="174.528"
             id="use161"
             width="100%"
             height="100%" />
        </g>
      </g>
      <g
         id="patch_11">
        <path
           d="M 103.104,307.584 V 41.472"
           style="fill:none;stroke:#ffffff;stroke-width:0.8;stroke-linecap:square;stroke-linejoin:miter"
           id="path166" />
      </g>
      <g
         id="patch_12">
        <path
           d="M 369.216,307.584 V 41.472"
           style="fill:none;stroke:#ffffff;stroke-width:0.8;stroke-linecap:square;stroke-linejoin:miter"
           id="path169" />
      </g>
      <g
         id="patch_13">
        <path
           d="M 103.104,307.584 H 369.216"
           style="fill:none;stroke:#ffffff;stroke-width:0.8;stroke-linecap:square;stroke-linejoin:miter"
           id="path172" />
      </g>
      <g
         id="patch_14">
        <path
           d="M 103.104,41.472 H 369.216"
           style="fill:none;stroke:#ffffff;stroke-width:0.8;stroke-linecap:square;stroke-linejoin:miter"
           id="path175" />
      </g>
      <g
         id="text_9">
        <!-- $\vec{e}_1$ -->
        <g
           style="fill:#ffffff"
           transform="matrix(0.2,0,0,-0.2,226.97447,178.84683)"
           id="g188">
          <defs
             id="defs180">
            <path
               d="M 53.703125,59.28125 C 52.296875,57.984375 49,55.1875 49,53.375 c 0,-1 1,-2 2,-2 0.90625,0 1.40625,0.703125 1.90625,1.3125 1.1875,1.5 3.5,4.296875 7.890625,6.5 C 61.5,59.578125 62.5,60.078125 62.5,61.28125 c 0,1 -0.703125,1.5 -1.40625,2 -2.1875,1.5 -3.296875,3.296875 -4.09375,5.703125 -0.203125,0.890625 -0.59375,2.203125 -2,2.203125 -1.40625,0 -2,-1.3125 -2,-2.109375 0,-0.5 0.796875,-3.703125 2.40625,-5.796875 H 21.703125 c -1.703125,0 -3.5,0 -3.5,-2 0,-2 1.796875,-2 3.5,-2 z"
               id="CMMI10-126" />
            <path
               d="M 32.796875,11.125 30.40625,9.4375 C 25.09375,5.671875 20.296875,3.671875 16.703125,3.671875 c -4.703125,0 -7.609375,3.6875 -7.609375,9.65625 0,2.46875 0.3125,5.15625 0.8125,8.046875 l 8.1875,1.96875 C 19.796875,23.75 22.5,24.75 25,25.84375 33.5,29.515625 37.40625,34.09375 37.40625,40.25 37.40625,44.90625 34,48 29,48 22.5,48 11.40625,41.140625 7.5,34.78125 4.5,29.8125 1.5,17.984375 1.5,11.3125 1.5,3.5625 5.90625,-1 13.09375,-1 c 5.703125,0 11.3125,2.78125 20.5,10.234375 z m -21.5,16.1875 C 13,34.171875 15,38.453125 17.90625,41.03125 19.703125,42.625 22.796875,43.8125 25.203125,43.8125 28.09375,43.8125 30,41.828125 30,38.65625 30,34.265625 26.5,29.609375 21.296875,27.109375 18.5,25.734375 14.90625,24.640625 10.40625,23.640625 Z"
               id="URW_Palladio_L_Italic-101" />
          </defs>
          <use
             transform="matrix(1.038107,0,0,1.038107,0,0.149358)"
             xlink:href="#CMMI10-126"
             id="use182"
             x="0"
             y="0"
             width="100%"
             height="100%" />
          <use
             transform="matrix(0.996264,0,0,0.996264,14.495599,0)"
             xlink:href="#URW_Palladio_L_Italic-101"
             id="use184"
             x="0"
             y="0"
             width="100%"
             height="100%" />
          <use
             transform="matrix(0.757155,0,0,0.757155,53.997537,-18.577338)"
             xlink:href="#URW_Palladio_L_Roman-49"
             id="use186"
             x="0"
             y="0"
             width="100%"
             height="100%" />
        </g>
      </g>
      <g
         id="text_10">
        <!-- $\vec{e}_2$ -->
        <g
           style="fill:#ffffff"
           transform="matrix(0.2,0,0,-0.2,315.67847,178.84683)"
           id="g200">
          <defs
             id="defs192">
            <path
               d="M 1.59375,2.5 V 0 C 20.296875,0 20.296875,0 23.90625,0 27.5,0 27.5,0 46.796875,0 46.59375,1.953125 46.59375,2.90625 46.59375,4.203125 c 0,1.234375 0,2.15625 0.203125,4.21875 -11.5,0 -16.09375,0 -34.59375,0 l 18.203125,19.09375 c 9.6875,10.203125 12.6875,15.65625 12.6875,23.078125 0,11.375 -7.796875,18.40625 -20.5,18.40625 -7.1875,0 -12.09375,-2 -17,-6.984375 l -1.6875,-13.59375 h 2.890625 l 1.296875,4.59375 c 1.609375,5.78125 5.203125,8.28125 11.90625,8.28125 8.59375,0 14.09375,-5.40625 14.09375,-13.875 0,-7.5 -4.1875,-14.875 -15.5,-26.859375 z"
               id="URW_Palladio_L_Roman-50" />
          </defs>
          <use
             transform="matrix(1.038107,0,0,1.038107,0,0.149358)"
             xlink:href="#CMMI10-126"
             id="use194"
             x="0"
             y="0"
             width="100%"
             height="100%" />
          <use
             transform="matrix(0.996264,0,0,0.996264,14.495599,0)"
             xlink:href="#URW_Palladio_L_Italic-101"
             id="use196"
             x="0"
             y="0"
             width="100%"
             height="100%" />
          <use
             transform="matrix(0.757155,0,0,0.757155,53.997537,-17.441431)"
             xlink:href="#URW_Palladio_L_Roman-50"
             id="use198"
             x="0"
             y="0"
             width="100%"
             height="100%" />
        </g>
      </g>
      <g
         id="text_11">
        <!-- $\vec{e}_3$ -->
        <g
           style="fill:#ffffff"
           transform="matrix(0.2,0,0,-0.2,226.97447,90.142826)"
           id="g212">
          <defs
             id="defs204">
            <path
               d="M 4.296875,49.953125 H 7.40625 l 1.796875,5.578125 c 1.09375,3.375 7.390625,6.765625 12.59375,6.765625 6.5,0 11.796875,-5.28125 11.796875,-11.546875 0,-7.46875 -5.890625,-13.75 -13,-13.75 -0.796875,0 -1.890625,0 -3.1875,0.203125 h -1.5 L 14.703125,31.984375 15.40625,31.375 c 3.796875,1.71875 5.6875,2.21875 8.390625,2.21875 8.296875,0 13.109375,-5.328125 13.109375,-14.5 0,-10.25 -6.109375,-16.984375 -15.40625,-16.984375 -4.59375,0 -8.703125,1.5 -11.703125,4.3125 -2.390625,2.21875 -3.703125,4.53125 -5.59375,9.96875 l -2.703125,-1 C 3.59375,9.265625 4.40625,5.640625 5,0.609375 10.296875,-1.203125 14.703125,-2 18.40625,-2 c 8,0 17.1875,4.515625 22.6875,11.265625 3.40625,4.125 5.109375,8.546875 5.109375,13.265625 0,4.828125 -2,9.0625 -5.609375,11.5625 -2.5,1.8125 -4.796875,2.625 -9.796875,3.515625 8,6.1875 11,10.765625 11,16.640625 0,8.875 -7.390625,14.75 -18.5,14.75 C 16.5,69 12,67.109375 7.203125,62.328125 Z"
               id="URW_Palladio_L_Roman-51" />
          </defs>
          <use
             transform="matrix(1.038107,0,0,1.038107,0,0.149358)"
             xlink:href="#CMMI10-126"
             id="use206"
             x="0"
             y="0"
             width="100%"
             height="100%" />
          <use
             transform="matrix(0.996264,0,0,0.996264,14.495599,0)"
             xlink:href="#URW_Palladio_L_Italic-101"
             id="use208"
             x="0"
             y="0"
             width="100%"
             height="100%" />
          <use
             transform="matrix(0.757155,0,0,0.757155,53.997537,-17.441431)"
             xlink:href="#URW_Palladio_L_Roman-51"
             id="use210"
             x="0"
             y="0"
             width="100%"
             height="100%" />
        </g>
      </g>
      <g
         id="text_12">
        <!-- $\vec{e}_4$ -->
        <g
           style="fill:#ffffff"
           transform="matrix(0.2,0,0,-0.2,138.27047,178.84683)"
           id="g224">
          <defs
             id="defs216">
            <path
               d="m 28,18 v -7.484375 c 0,-6 -1.09375,-7.40625 -6,-7.40625 H 15.796875 V 0 C 29.09375,0 29.09375,0 31.5,0 33.90625,0 33.90625,0 47.203125,0 V 3.109375 H 42.40625 c -4.90625,0 -6,1.296875 -6,7.34375 V 18 c 5.890625,0 8,0 10.796875,-0.296875 V 24.8125 C 42.5,24.421875 40.59375,24.421875 39.09375,24.421875 H 38.796875 36.40625 v 13.96875 C 36.40625,56.25 36.59375,64.875 37.09375,69 L 35.90625,69.5 28.5,66.796875 0.203125,20.296875 1.296875,18 Z m 0,6.421875 H 6.5 L 28,59.78125 Z"
               id="URW_Palladio_L_Roman-52" />
          </defs>
          <use
             transform="matrix(1.038107,0,0,1.038107,0,0.149358)"
             xlink:href="#CMMI10-126"
             id="use218"
             x="0"
             y="0"
             width="100%"
             height="100%" />
          <use
             transform="matrix(0.996264,0,0,0.996264,14.495599,0)"
             xlink:href="#URW_Palladio_L_Italic-101"
             id="use220"
             x="0"
             y="0"
             width="100%"
             height="100%" />
          <use
             transform="matrix(0.757155,0,0,0.757155,53.997537,-18.577338)"
             xlink:href="#URW_Palladio_L_Roman-52"
             id="use222"
             x="0"
             y="0"
             width="100%"
             height="100%" />
        </g>
      </g>
      <g
         id="text_13">
        <!-- $\vec{e}_5$ -->
        <g
           style="fill:#ffffff"
           transform="matrix(0.2,0,0,-0.2,226.97447,267.55083)"
           id="g236">
          <defs
             id="defs228">
            <path
               d="m 12.703125,60.578125 c 12.890625,0 18.5,0 30.5,0 l 0.5,0.46875 C 43.5,62.75 43.5,63.5 43.5,64.75 c 0,1.328125 0,2.078125 0.203125,3.78125 l -0.5,0.46875 c -7.5,0 -12,0 -17.40625,0 -5.5,0 -9.890625,0 -17.390625,0 l -0.5,-0.203125 C 8,62.671875 8.09375,58.265625 8.09375,55.046875 8.09375,46.515625 7.796875,36.875 7.5,32.453125 l 2,-0.609375 C 14.203125,36.578125 16.90625,38 21.796875,38 31.40625,38 37.40625,31.140625 37.40625,20.25 37.40625,9.0625 31,2.5 20.09375,2.5 14.703125,2.5 9.703125,4.328125 8.296875,6.9375 l -4.59375,8.265625 -2.40625,-1.40625 C 3.59375,8.0625 4.796875,4.84375 6.203125,0.421875 9,-1.109375 13,-2 17.296875,-2 24,-2 31.09375,0.921875 36.59375,5.75 c 6.109375,5.4375 9.3125,12.28125 9.3125,19.71875 0,11.390625 -8.109375,19.4375 -19.5,19.4375 -4.8125,0 -8.40625,-1.296875 -14.609375,-5 z"
               id="URW_Palladio_L_Roman-53" />
          </defs>
          <use
             transform="matrix(1.038107,0,0,1.038107,0,0.149358)"
             xlink:href="#CMMI10-126"
             id="use230"
             x="0"
             y="0"
             width="100%"
             height="100%" />
          <use
             transform="matrix(0.996264,0,0,0.996264,14.495599,0)"
             xlink:href="#URW_Palladio_L_Italic-101"
             id="use232"
             x="0"
             y="0"
             width="100%"
             height="100%" />
          <use
             transform="matrix(0.757155,0,0,0.757155,53.997537,-17.441431)"
             xlink:href="#URW_Palladio_L_Roman-53"
             id="use234"
             x="0"
             y="0"
             width="100%"
             height="100%" />
        </g>
      </g>
      <g
         id="text_14">
        <!-- $\vec{e}_6$ -->
        <g
           style="fill:#ffffff"
           transform="matrix(0.2,0,0,-0.2,315.67847,90.142826)"
           id="g248">
          <defs
             id="defs240">
            <path
               d="m 41.59375,67.34375 -3.6875,1.703125 C 28.296875,65.84375 24.203125,63.84375 19.09375,59.4375 8.796875,50.71875 3.203125,38.5 3.203125,24.765625 3.203125,8.21875 11.203125,-2 24.09375,-2 c 13,0 22.703125,10.3125 22.703125,23.953125 0,11.53125 -6.890625,19.046875 -17.5,19.046875 -5,0 -8,-1.3125 -13.890625,-6.015625 -1.109375,-0.90625 -1.203125,-1 -2.3125,-1.796875 2.109375,18.125 10.5,27.953125 28.5,33.359375 z M 25.5,34.984375 c 7.59375,0 12.703125,-6.609375 12.703125,-16.53125 0,-10.4375 -5.109375,-17.15625 -12.796875,-17.15625 -8.5,0 -13.109375,7.3125 -13.109375,20.765625 0,3.5 0.40625,5.40625 1.5,7.109375 2.203125,3.40625 6.90625,5.8125 11.703125,5.8125 z"
               id="URW_Palladio_L_Roman-54" />
          </defs>
          <use
             transform="matrix(1.038107,0,0,1.038107,0,0.149358)"
             xlink:href="#CMMI10-126"
             id="use242"
             x="0"
             y="0"
             width="100%"
             height="100%" />
          <use
             transform="matrix(0.996264,0,0,0.996264,14.495599,0)"
             xlink:href="#URW_Palladio_L_Italic-101"
             id="use244"
             x="0"
             y="0"
             width="100%"
             height="100%" />
          <use
             transform="matrix(0.757155,0,0,0.757155,53.997537,-17.441431)"
             xlink:href="#URW_Palladio_L_Roman-54"
             id="use246"
             x="0"
             y="0"
             width="100%"
             height="100%" />
        </g>
      </g>
      <g
         id="text_15">
        <!-- $\vec{e}_7$ -->
        <g
           style="fill:#ffffff"
           transform="matrix(0.2,0,0,-0.2,138.27047,90.142826)"
           id="g260">
          <defs
             id="defs252">
            <path
               d="M 5.59375,0.5 6.5,-0.796875 C 10.40625,-0.5 10.40625,-0.5 11.09375,-0.5 c 0.703125,0 0.703125,0 4.609375,-0.296875 4.203125,10.9375 9.09375,21.375 15.703125,33.40625 l 18.296875,33 V 68.3125 c -10.796875,0 -14.296875,0 -22.40625,0 -7.296875,0 -12.203125,0 -21.890625,0 l -1,-0.203125 c 0.296875,-9.515625 0.296875,-9.515625 0.296875,-10.53125 0,-1.109375 0,-1.109375 -0.296875,-10.21875 h 3 l 0.6875,5.609375 C 8.90625,59.203125 9.59375,60 14.203125,60 H 40.90625 C 36.90625,51.765625 33.796875,45.953125 30,39.828125 Z"
               id="URW_Palladio_L_Roman-55" />
          </defs>
          <use
             transform="matrix(1.038107,0,0,1.038107,0,0.149358)"
             xlink:href="#CMMI10-126"
             id="use254"
             x="0"
             y="0"
             width="100%"
             height="100%" />
          <use
             transform="matrix(0.996264,0,0,0.996264,14.495599,0)"
             xlink:href="#URW_Palladio_L_Italic-101"
             id="use256"
             x="0"
             y="0"
             width="100%"
             height="100%" />
          <use
             transform="matrix(0.757155,0,0,0.757155,53.997537,-17.441431)"
             xlink:href="#URW_Palladio_L_Roman-55"
             id="use258"
             x="0"
             y="0"
             width="100%"
             height="100%" />
        </g>
      </g>
      <g
         id="text_16">
        <!-- $\vec{e}_8$ -->
        <g
           style="fill:#ffffff"
           transform="matrix(0.2,0,0,-0.2,138.27047,267.55083)"
           id="g272">
          <defs
             id="defs264">
            <path
               d="m 16.796875,34.546875 c -4.09375,-1.890625 -5.796875,-3 -8,-5.109375 C 5,25.640625 3,21.125 3,15.921875 3,5.609375 11.296875,-2 22.59375,-2 c 13,0 23.8125,10.21875 23.8125,22.625 0,8.015625 -3.703125,12.328125 -15.109375,17.53125 C 40.40625,44.375 43.59375,48.578125 43.59375,54.578125 43.59375,63.1875 36.5,69 25.90625,69 14,69 5.296875,61.390625 5.296875,50.890625 c 0,-6.8125 2.703125,-10.625 11.5,-16.34375 z m 11.609375,-5 C 34.703125,26.734375 38.5,21.828125 38.5,16.4375 38.5,8.015625 32.203125,1.40625 24.09375,1.40625 c -8.5,0 -14,6.015625 -14,15.328125 0,7.296875 2.90625,11.90625 10.3125,16.421875 z M 22.296875,42.375 c -6.296875,3.09375 -9.5,7.109375 -9.5,12.109375 0,6.609375 4.796875,11.109375 11.90625,11.109375 7.296875,0 12.09375,-4.796875 12.09375,-12.125 0,-5.6875 -2.5,-9.59375 -9,-13.8125 z"
               id="URW_Palladio_L_Roman-56" />
          </defs>
          <use
             transform="matrix(1.038107,0,0,1.038107,0,0.149358)"
             xlink:href="#CMMI10-126"
             id="use266"
             x="0"
             y="0"
             width="100%"
             height="100%" />
          <use
             transform="matrix(0.996264,0,0,0.996264,14.495599,0)"
             xlink:href="#URW_Palladio_L_Italic-101"
             id="use268"
             x="0"
             y="0"
             width="100%"
             height="100%" />
          <use
             transform="matrix(0.757155,0,0,0.757155,53.997537,-17.441431)"
             xlink:href="#URW_Palladio_L_Roman-56"
             id="use270"
             x="0"
             y="0"
             width="100%"
             height="100%" />
        </g>
      </g>
      <g
         id="text_17">
        <!-- $\vec{e}_9$ -->
        <g
           style="fill:#ffffff"
           transform="matrix(0.2,0,0,-0.2,315.67847,267.55083)"
           id="g284">
          <defs
             id="defs276">
            <path
               d="M 9.59375,-1.65625 C 20.703125,1.953125 25.5,4.25 30.90625,8.84375 40.59375,17.15625 45.703125,28.671875 45.703125,42.078125 45.703125,59 37.59375,69.296875 24.40625,69.296875 11.59375,69.296875 2,59.296875 2,45.90625 2,34.390625 9.5,26 19.90625,26 23.296875,26 27.203125,27.09375 29,28.59375 l 7,5.8125 C 35.203125,17.578125 24.296875,5.25 6.203125,0.84375 V 0.046875 Z M 24,66 c 4.5,0 7.796875,-1.90625 10,-5.90625 C 35.796875,56.890625 37,52 37,47.5 37,38.296875 31.703125,32.109375 24,32.109375 c -8,0 -13.40625,7.09375 -13.40625,17.484375 C 10.59375,59.703125 15.796875,66 24,66 Z"
               id="URW_Palladio_L_Roman-57" />
          </defs>
          <use
             transform="matrix(1.038107,0,0,1.038107,0,0.149358)"
             xlink:href="#CMMI10-126"
             id="use278"
             x="0"
             y="0"
             width="100%"
             height="100%" />
          <use
             transform="matrix(0.996264,0,0,0.996264,14.495599,0)"
             xlink:href="#URW_Palladio_L_Italic-101"
             id="use280"
             x="0"
             y="0"
             width="100%"
             height="100%" />
          <use
             transform="matrix(0.757155,0,0,0.757155,53.997537,-17.441431)"
             xlink:href="#URW_Palladio_L_Roman-57"
             id="use282"
             x="0"
             y="0"
             width="100%"
             height="100%" />
        </g>
      </g>
    </g>
  </g>
  <defs
     id="defs292">
    <clipPath
       id="pb160618aeb">
      <rect
         height="266.112"
         width="266.112"
         x="103.104"
         y="41.472"
         id="rect289" />
    </clipPath>
  </defs>
</svg>
